<?xml version="1.0" encoding="UTF-8"?>
<svg version="1.1" xmlns="http://www.w3.org/2000/svg" width="300" height="100">
<path d="M0 0 C2.72998676 0.11437651 5.4584582 0.24111406 8.1875 0.375 C9.34088867 0.42140625 9.34088867 0.42140625 10.51757812 0.46875 C17.93585768 0.85080732 22.40485327 2.64485015 27.6484375 8 C29.24106549 10.35672119 29.24261293 11.34742023 28.9375 14.125 C28.958125 15.40375 28.97875 16.6825 29 18 C30.86198199 19.54188339 32.81521872 20.53422827 34.953125 21.65625 C38.36018892 23.89294845 39.89099079 27.1476522 41 31 C41.44180716 35.11270486 40.64498755 37.11178708 38.25 40.4375 C36.37887246 43.0588232 34.67043116 45.57408766 33.0625 48.375 C30.35421534 51.82190775 28.09986312 52.58081661 24 54 C26.63904371 55.41377341 29.07120629 56.37240135 32 57 C32 57.66 32 58.32 32 59 C29.39683978 59.48523151 26.7926622 59.96323254 24.1875 60.4375 C23.46884766 60.57220703 22.75019531 60.70691406 22.00976562 60.84570312 C11.86193861 62.67857056 2.72196359 63.21694515 -7.5 61.625 C-8.47453125 61.48578125 -9.4490625 61.3465625 -10.453125 61.203125 C-14.09871116 60.66937896 -17.49817393 60.16727536 -21 59 C-21 58.34 -21 57.68 -21 57 C-17.535 56.505 -17.535 56.505 -14 56 C-14.97453125 54.37191406 -14.97453125 54.37191406 -15.96875 52.7109375 C-16.81318077 51.26602263 -17.65689313 49.82068776 -18.5 48.375 C-18.92925781 47.66214844 -19.35851562 46.94929688 -19.80078125 46.21484375 C-22.24236781 41.99051144 -23.65772242 39.02260755 -23 34 C-22 31.625 -22 31.625 -21 30 C-22.2684375 28.9171875 -22.2684375 28.9171875 -23.5625 27.8125 C-26 25 -26 25 -25.89355469 22.52368164 C-24.81581367 19.47979942 -23.778447 18.62217047 -21.140625 16.80859375 C-20.35429687 16.25623047 -19.56796875 15.70386719 -18.7578125 15.13476562 C-17.93023437 14.57466797 -17.10265625 14.01457031 -16.25 13.4375 C-14.62953022 12.31217377 -13.00972087 11.18589584 -11.390625 10.05859375 C-10.62685547 9.53378418 -9.86308594 9.00897461 -9.07617188 8.46826172 C-7.34900329 7.24681395 -5.68789313 5.93261148 -4.046875 4.59765625 C-2 3 -2 3 0 3 C0 2.01 0 1.02 0 0 Z M11 6 C11.804375 6.804375 12.60875 7.60875 13.4375 8.4375 C14.625 9.625 15.8125 10.8125 17 12 C18.66617115 12.04063832 20.33388095 12.042721 22 12 C20.45198044 9.4158995 20.45198044 9.4158995 18 7 C14.35817665 6.10944264 14.35817665 6.10944264 11 6 Z M-7.5 13.8125 C-8.38042969 14.45509766 -9.26085938 15.09769531 -10.16796875 15.75976562 C-11.43060547 16.69272461 -11.43060547 16.69272461 -12.71875 17.64453125 C-13.49154297 18.21534424 -14.26433594 18.78615723 -15.06054688 19.37426758 C-17.22656562 21.03508955 -17.22656562 21.03508955 -19 24 C-17.02 25.65 -15.04 27.3 -13 29 C-8.30762016 24.41731215 -3.80319423 19.75053386 0.45703125 14.76171875 C1.91080366 13.10184189 3.42141586 11.54066019 5 10 C4.67 9.01 4.34 8.02 4 7 C-0.25046432 7 -4.19960759 11.36015864 -7.5 13.8125 Z M7 14 C5.93082951 15.16279842 4.89545123 16.35672018 3.875 17.5625 C1.44735099 20.38395655 -1.02993854 23.0815974 -3.6875 25.6875 C-6.35500327 28.30715568 -8.71337169 31.03585219 -11 34 C-11.66 34.66 -12.32 35.32 -13 36 C-11.35 40.62 -9.7 45.24 -8 50 C-6.02 47.525 -6.02 47.525 -4 45 C-3.443125 44.38125 -2.88625 43.7625 -2.3125 43.125 C-0.43082468 40.07847805 -0.1839485 37.55633773 0 34 C-0.83169965 30.66500695 -0.83169965 30.66500695 -2 28 C-1.43152344 27.81824219 -0.86304688 27.63648438 -0.27734375 27.44921875 C4.60701003 25.85915366 9.31029027 24.09540222 14 22 C13.02471263 20.66382648 12.04466681 19.3311249 11.0625 18 C10.51722656 17.2575 9.97195312 16.515 9.41015625 15.75 C8.94480469 15.1725 8.47945312 14.595 8 14 C7.67 14 7.34 14 7 14 Z M19 17 C19 17.99 19 18.98 19 20 C20.32 19.34 21.64 18.68 23 18 C21.68 17.67 20.36 17.34 19 17 Z M24 23 C24 24.32 24 25.64 24 27 C25.36125 26.87625 25.36125 26.87625 26.75 26.75 C30 27 30 27 32.375 29 C32.91125 29.66 33.4475 30.32 34 31 C33.02738378 27.72847271 32.34232413 26.25454871 29.5625 24.1875 C27.01705818 22.78976949 27.01705818 22.78976949 24 23 Z M16 26 C14.35293447 26.64268437 12.70737825 27.28923802 11.0625 27.9375 C10.14597656 28.29714844 9.22945312 28.65679687 8.28515625 29.02734375 C6.07581467 29.7996218 6.07581467 29.7996218 5 31 C4.77990072 32.99873937 4.574167 34.9990664 4.375 37 C3.50106188 43.20632615 1.63966298 46.69637073 -2.5390625 51.29296875 C-4.2167395 52.87877561 -4.2167395 52.87877561 -4 55 C7.27478015 58.54276349 17.17370776 51.93720658 27 47 C26.67 43.37 26.34 39.74 26 36 C26.99 35.67 27.98 35.34 29 35 C28.505 33.515 28.505 33.515 28 32 C26.948125 31.938125 25.89625 31.87625 24.8125 31.8125 C20.3708265 30.86591384 18.88406243 29.40843742 16 26 Z M34 31 C35 33 35 33 35 33 Z " fill="#2C9762" transform="translate(35,19)"/>
<path d="M0 0 C0.66 0.33 1.32 0.66 2 1 C0.08778596 6.73664211 -2.64717032 9.99954664 -7.0625 14.10546875 C-9.07293623 15.92994941 -9.07293623 15.92994941 -10.4375 18.23828125 C-12 20 -12 20 -14.6875 20.25 C-15.450625 20.1675 -16.21375 20.085 -17 20 C-16.45859375 21.68029297 -16.45859375 21.68029297 -15.90625 23.39453125 C-15.4372741 24.86711558 -14.9685365 26.33977581 -14.5 27.8125 C-14.26152344 28.55048828 -14.02304687 29.28847656 -13.77734375 30.04882812 C-12.80059864 33.13255196 -12 35.74495809 -12 39 C-10.31002677 37.35697047 -8.64783606 35.68528688 -7 34 C-6.236875 33.2575 -5.47375 32.515 -4.6875 31.75 C-1.9803054 27.33827547 -2.38928301 22.67705267 -3.51953125 17.72265625 C-3.67808594 17.15417969 -3.83664063 16.58570312 -4 16 C-0.535 15.505 -0.535 15.505 3 15 C2.01 15.495 2.01 15.495 1 16 C1.10441406 16.95519531 1.20882812 17.91039063 1.31640625 18.89453125 C1.80416269 26.65992346 1.78045099 31.10850506 -3.4375 37.375 C-4.92278875 38.95094018 -6.43507236 40.50311269 -8 42 C-8.33 42.33 -8.66 42.66 -9 43 C-6.77110504 43.05428973 -4.54182529 43.09292338 -2.3125 43.125 C-0.45044922 43.15980469 -0.45044922 43.15980469 1.44921875 43.1953125 C4.84572476 43.00848599 6.93033823 42.34027486 10 41 C12.8125 41.375 12.8125 41.375 15 42 C15 42.33 15 42.66 15 43 C17.97 43.495 17.97 43.495 21 44 C21 44.66 21 45.32 21 46 C13.02094584 47.76296451 5.46842799 48.25485556 -2.6875 48.125 C-3.78255859 48.11597656 -4.87761719 48.10695312 -6.00585938 48.09765625 C-8.67081354 48.07438154 -11.33528134 48.04169135 -14 48 C-14.6708712 46.3767313 -15.33657029 44.75132422 -16 43.125 C-16.37125 42.22007813 -16.7425 41.31515625 -17.125 40.3828125 C-18 38 -18 38 -18 36 C-17.01 36 -16.02 36 -15 36 C-15.28875 35.31292969 -15.5775 34.62585938 -15.875 33.91796875 C-16.24625 33.01691406 -16.6175 32.11585937 -17 31.1875 C-17.37125 30.29417969 -17.7425 29.40085937 -18.125 28.48046875 C-19 26 -19 26 -19 23 C-19.66 23 -20.32 23 -21 23 C-20.01 25.97 -19.02 28.94 -18 32 C-19.485 32.495 -19.485 32.495 -21 33 C-25.01796407 26.79041916 -25.01796407 26.79041916 -24.9375 23.25 C-23.94493238 20.86783771 -22.85226585 19.74685235 -21 18 C-21.66708984 17.41992188 -21.66708984 17.41992188 -22.34765625 16.828125 C-22.91355469 16.30734375 -23.47945312 15.7865625 -24.0625 15.25 C-24.63097656 14.73953125 -25.19945312 14.2290625 -25.78515625 13.703125 C-27 12 -27 12 -26.8125 9.875 C-26 8 -26 8 -23.9375 6.75 C-23.298125 6.5025 -22.65875 6.255 -22 6 C-22.2165625 7.299375 -22.2165625 7.299375 -22.4375 8.625 C-21.85602971 13.11062798 -19.98633937 14.22485644 -16.53125 16.8984375 C-16.0259375 17.26195313 -15.520625 17.62546875 -15 18 C-14.599021 17.11683105 -14.599021 17.11683105 -14.18994141 16.21582031 C-12.98357913 13.96942228 -11.7065935 12.39521664 -9.9609375 10.546875 C-9.38085938 9.928125 -8.80078125 9.309375 -8.203125 8.671875 C-7.59984375 8.03765625 -6.9965625 7.4034375 -6.375 6.75 C-5.76398437 6.1003125 -5.15296875 5.450625 -4.5234375 4.78125 C-3.01971926 3.18354937 -1.51184263 1.59000851 0 0 Z " fill="#1E9356" transform="translate(38,32)"/>
<path d="M0 0 C3.07969154 3.07969154 3.27303257 5.16134683 3.4375 9.4375 C1.4575 9.4375 -0.5225 9.4375 -2.5625 9.4375 C-2.8925 8.1175 -3.2225 6.7975 -3.5625 5.4375 C-6.5325 5.4375 -9.5025 5.4375 -12.5625 5.4375 C-12.8925 6.4275 -13.2225 7.4175 -13.5625 8.4375 C-12.58667969 8.76363281 -11.61085938 9.08976562 -10.60546875 9.42578125 C-9.32015489 9.86672834 -8.03500722 10.30816008 -6.75 10.75 C-6.10740234 10.96333984 -5.46480469 11.17667969 -4.80273438 11.39648438 C1.48480319 13.57920467 1.48480319 13.57920467 3.4375 16.4375 C4.21083333 23.3975 4.21083333 23.3975 1.625 26.875 C-3.02334049 30.19524321 -8.07048921 29.90799937 -13.5625 29.4375 C-17.37529781 28.12035167 -19.03775516 27.11459012 -21.5 23.9375 C-22.5625 21.4375 -22.5625 21.4375 -21.5625 18.4375 C-19.5825 18.4375 -17.6025 18.4375 -15.5625 18.4375 C-15.2325 19.7575 -14.9025 21.0775 -14.5625 22.4375 C-11.2625 22.4375 -7.9625 22.4375 -4.5625 22.4375 C-4.2325 21.1175 -3.9025 19.7975 -3.5625 18.4375 C-4.37074219 18.26734375 -5.17898437 18.0971875 -6.01171875 17.921875 C-17.31333818 15.3589022 -17.31333818 15.3589022 -20.5625 11.4375 C-21.77868932 7.86494388 -21.86960573 6.1882029 -20.4375 2.6875 C-15.44814406 -3.29972713 -6.66589492 -2.92363812 0 0 Z " fill="#93C3AC" transform="translate(106.5625,37.5625)"/>
<path d="M0 0 C5.62824439 0.03442351 9.55535577 0.33579651 14.375 3.25 C15.53797973 5.57595946 15.54100691 7.03723231 15.5625 9.625 C15.57667969 10.39585938 15.59085938 11.16671875 15.60546875 11.9609375 C15.375 14.25 15.375 14.25 14.33984375 16.2734375 C13.17359086 18.66260334 13.3179328 19.90759681 13.75 22.5 C13.95625 23.7375 14.1625 24.975 14.375 26.25 C15.365 26.25 16.355 26.25 17.375 26.25 C17.045 27.9 16.715 29.55 16.375 31.25 C9.5 30.375 9.5 30.375 8.375 29.25 C8.14212992 27.56816052 7.96235834 25.8787584 7.8125 24.1875 C7.72871094 23.26839844 7.64492187 22.34929688 7.55859375 21.40234375 C7.49800781 20.69207031 7.43742188 19.98179688 7.375 19.25 C4.405 18.92 1.435 18.59 -1.625 18.25 C-1.625 22.21 -1.625 26.17 -1.625 30.25 C-3.605 30.25 -5.585 30.25 -7.625 30.25 C-7.64965746 26.1382744 -7.66783959 22.02657722 -7.67993164 17.91479492 C-7.6849708 16.51504772 -7.69180216 15.1153058 -7.70043945 13.71557617 C-7.7125232 11.70754223 -7.71769807 9.69947043 -7.72265625 7.69140625 C-7.72789307 6.48170166 -7.73312988 5.27199707 -7.73852539 4.02563477 C-7.52593742 -1.17202684 -4.57429787 0.0577806 0 0 Z M-1.625 6.25 C-1.625 8.89 -1.625 11.53 -1.625 14.25 C3.95330016 14.37469099 3.95330016 14.37469099 9.375 13.25 C9.41754356 11.25045254 9.41580783 9.24958364 9.375 7.25 C8.34093327 5.99050951 8.34093327 5.99050951 6.08984375 6.15234375 C5.17332031 6.16394531 4.25679687 6.17554688 3.3125 6.1875 C2.39339844 6.19652344 1.47429687 6.20554687 0.52734375 6.21484375 C-0.18292969 6.22644531 -0.89320313 6.23804688 -1.625 6.25 Z " fill="#8EC0A7" transform="translate(150.625,35.75)"/>
<path d="M0 0 C3.39070432 1.66560914 5.25026595 2.90947774 7.375 6 C8 8 8 8 8 12 C6.02 12 4.04 12 2 12 C1.71125 11.360625 1.4225 10.72125 1.125 10.0625 C0.17176549 7.84793921 0.17176549 7.84793921 -2 7 C-7.15819824 6.39911279 -7.15819824 6.39911279 -11.7265625 8.20703125 C-14.20384268 11.69498095 -13.58716791 15.92318647 -13 20 C-11.64237846 22.77564845 -11.64237846 22.77564845 -9 24 C-4.30942001 24.62419482 -4.30942001 24.62419482 -0.1875 22.6875 C0.89991036 21.14223264 1.95187897 19.57218154 3 18 C5.625 17.8125 5.625 17.8125 8 18 C9 21 9 21 7.4375 24.5 C5.18177919 28.12910184 3.14870087 29.66928463 -1 31 C-6.70169347 31.72678678 -11.12737476 31.28618912 -16 28 C-20.47702923 23.03896761 -21.29959717 20.07449255 -21.21484375 13.5390625 C-20.80264974 8.66767875 -19.00491625 5.90687564 -15.4375 2.6875 C-10.48352743 -0.74217332 -5.91289145 -0.60880265 0 0 Z " fill="#A4CDB8" transform="translate(132,36)"/>
<path d="M0 0 C2.05078125 0.03255208 4.1015625 0.06510417 6.15234375 0.09765625 C8.76010778 6.34095012 11.12436091 12.66559177 13.40234375 19.03515625 C13.67256348 19.78079834 13.9427832 20.52644043 14.22119141 21.29467773 C15.30358378 24.34939087 16.15234375 26.83189297 16.15234375 30.09765625 C13.84234375 30.09765625 11.53234375 30.09765625 9.15234375 30.09765625 C8.49234375 27.45765625 7.83234375 24.81765625 7.15234375 22.09765625 C3.85234375 22.09765625 0.55234375 22.09765625 -2.84765625 22.09765625 C-3.50765625 24.73765625 -4.16765625 27.37765625 -4.84765625 30.09765625 C-7.15765625 30.09765625 -9.46765625 30.09765625 -11.84765625 30.09765625 C-10.48808894 23.37497165 -8.59352133 17.05155946 -6.28515625 10.59765625 C-5.81045898 9.24027344 -5.81045898 9.24027344 -5.32617188 7.85546875 C-2.59698595 0.13726141 -2.59698595 0.13726141 0 0 Z M1.15234375 8.09765625 C0.49234375 11.06765625 -0.16765625 14.03765625 -0.84765625 17.09765625 C1.13234375 17.09765625 3.11234375 17.09765625 5.15234375 17.09765625 C4.16234375 14.12765625 3.17234375 11.15765625 2.15234375 8.09765625 C1.82234375 8.09765625 1.49234375 8.09765625 1.15234375 8.09765625 Z " fill="#26955C" transform="translate(180.84765625,35.90234375)"/>
<path d="M0 0 C1.21171875 -0.01675781 2.4234375 -0.03351562 3.671875 -0.05078125 C7.54668538 0.34262199 9.94628564 1.28622186 13.25 3.3125 C15.6109071 6.90518472 15.54058619 10.32244403 14.83203125 14.44140625 C14.25 16.3125 14.25 16.3125 12.375 18.8125 C7.72825283 21.04293864 3.3164211 20.6319241 -1.75 20.3125 C-1.75 23.6125 -1.75 26.9125 -1.75 30.3125 C-4.06 30.3125 -6.37 30.3125 -8.75 30.3125 C-8.79939662 26.36153022 -8.83571755 22.4106797 -8.85986328 18.45947266 C-8.87488107 16.4533864 -8.90028981 14.44738676 -8.92578125 12.44140625 C-8.93544922 10.55615234 -8.93544922 10.55615234 -8.9453125 8.6328125 C-8.95578613 7.47023926 -8.96625977 6.30766602 -8.97705078 5.10986328 C-8.50909089 -0.65560389 -4.8956715 0.01549263 0 0 Z M-1.75 6.3125 C-1.75 9.2825 -1.75 12.2525 -1.75 15.3125 C-0.47125 15.333125 0.8075 15.35375 2.125 15.375 C2.84429687 15.38660156 3.56359375 15.39820313 4.3046875 15.41015625 C6.33185404 15.43899242 6.33185404 15.43899242 8.25 14.3125 C8.25 12.0025 8.25 9.6925 8.25 7.3125 C5.96294169 6.16897084 4.65735238 6.20915561 2.125 6.25 C0.206875 6.2809375 0.206875 6.2809375 -1.75 6.3125 Z " fill="#AED3C1" transform="translate(206.75,35.6875)"/>
<path d="M0 0 C0.99 0 1.98 0 3 0 C2.67 1.32 2.34 2.64 2 4 C1.34 4 0.68 4 0 4 C0 4.66 0 5.32 0 6 C2.31 6 4.62 6 7 6 C7 6.66 7 7.32 7 8 C5.35 8 3.7 8 2 8 C2 8.66 2 9.32 2 10 C2.9075 9.896875 3.815 9.79375 4.75 9.6875 C8 10 8 10 10.375 12.5 C10.91125 13.325 11.4475 14.15 12 15 C11.67 15.66 11.34 16.32 11 17 C10.67 16.67 10.34 16.34 10 16 C9.67 17.32 9.34 18.64 9 20 C7.68 20 6.36 20 5 20 C5.495 25.94 5.495 25.94 6 32 C3.60496313 33.12672175 1.2090129 34.25142558 -1.1875 35.375 C-1.86103516 35.69210938 -2.53457031 36.00921875 -3.22851562 36.3359375 C-4.55342831 36.95638441 -5.88113301 37.57090693 -7.21166992 38.17919922 C-8.65025874 38.83947712 -10.07718777 39.52512904 -11.5 40.21875 C-14.93840296 41.29325092 -18.25205017 41.21358535 -21.8125 41.125 C-22.85180664 41.11146484 -22.85180664 41.11146484 -23.91210938 41.09765625 C-25.60822395 41.07426157 -27.30415871 41.03839641 -29 41 C-27.78515625 39.44921875 -27.78515625 39.44921875 -26 38 C-23.93359375 38.20703125 -23.93359375 38.20703125 -21.4375 38.8125 C-13.09378267 39.93396738 -5.94046215 35.41868426 1.29516602 31.75024414 C3 31 3 31 5 31 C4.505 29.6696875 4.505 29.6696875 4 28.3125 C3.08777857 25.29076653 2.81669042 23.11626294 3 20 C4.32 19.67 5.64 19.34 7 19 C6.505 18.01 6.505 18.01 6 17 C4.9275 16.896875 3.855 16.79375 2.75 16.6875 C-1.70842306 15.87012244 -3.12536513 14.39729575 -6 11 C-9.3 12.32 -12.6 13.64 -16 15 C-16.33 17.64 -16.66 20.28 -17 23 C-17.33 23 -17.66 23 -18 23 C-18 19.7 -18 16.4 -18 13 C-19.65 13 -21.3 13 -23 13 C-22.68289062 13.57492188 -22.36578125 14.14984375 -22.0390625 14.7421875 C-20.27586105 18.57350493 -20.03460561 21.89072257 -21 26 C-23.27118855 29.71132856 -25.86246443 32.9821696 -29 36 C-29.66 36 -30.32 36 -31 36 C-31.84080019 33.58570231 -32.67281402 31.16896007 -33.5 28.75 C-33.73847656 28.06808594 -33.97695313 27.38617188 -34.22265625 26.68359375 C-35.39421287 23.23586997 -36 20.68297096 -36 17 C-34.68 17.33 -33.36 17.66 -32 18 C-32.66 18.66 -33.32 19.32 -34 20 C-32.68 23.96 -31.36 27.92 -30 32 C-25.53961366 28.36126378 -24.26329863 25.51722349 -23.1640625 19.890625 C-23.10992187 19.26671875 -23.05578125 18.6428125 -23 18 C-23.33 17.67 -23.66 17.34 -24 17 C-24.04063832 15.33382885 -24.042721 13.66611905 -24 12 C-22.94039062 11.50628906 -21.88078125 11.01257812 -20.7890625 10.50390625 C-19.40103493 9.85678529 -18.01301446 9.20964908 -16.625 8.5625 C-15.57699219 8.07426758 -15.57699219 8.07426758 -14.5078125 7.57617188 C-10.73753019 5.82218564 -10.73753019 5.82218564 -7 4 C-6.67 5.32 -6.34 6.64 -6 8 C-4.02463255 7.65213292 -4.02463255 7.65213292 -2 7 C-1.67 6.34 -1.34 5.68 -1 5 C-1.639375 4.896875 -2.27875 4.79375 -2.9375 4.6875 C-3.618125 4.460625 -4.29875 4.23375 -5 4 C-5.33 3.01 -5.66 2.02 -6 1 C-5.01 1.33 -4.02 1.66 -3 2 C-2.01 2 -1.02 2 0 2 C0 1.34 0 0.68 0 0 Z " fill="#51A37A" transform="translate(57,35)"/>
<path d="M0 0 C6.30050445 2.45612885 9.02877919 4.70903959 12.1875 10.68359375 C13.12797943 13.36486442 13.33635416 15.17639531 13 18 C11.828125 20.24609375 11.828125 20.24609375 10.25 22.4375 C8.37887246 25.0588232 6.67043116 27.57408766 5.0625 30.375 C2.35421534 33.82190775 0.09986312 34.58081661 -4 36 C-1.36095629 37.41377341 1.07120629 38.37240135 4 39 C4 39.66 4 40.32 4 41 C-21.87985437 45.82402913 -21.87985437 45.82402913 -31 44 C-31 43.67 -31 43.34 -31 43 C-17.635 42.01 -17.635 42.01 -4 41 C-4 40.34 -4 39.68 -4 39 C-6.31 39 -8.62 39 -11 39 C-11 38.34 -11 37.68 -11 37 C-11.66 36.34 -12.32 35.68 -13 35 C-9.04 33.35 -5.08 31.7 -1 30 C-1 26.04 -1 22.08 -1 18 C0.32 18 1.64 18 3 18 C3 16.35 3 14.7 3 13 C4.32 13.66 5.64 14.32 7 15 C6.38125 13.88625 5.7625 12.7725 5.125 11.625 C4.77695313 10.99851562 4.42890625 10.37203125 4.0703125 9.7265625 C2.99102726 7.8387386 2.99102726 7.8387386 1 6 C1.99 6 2.98 6 4 6 C3.34 5.38125 2.68 4.7625 2 4.125 C0 2 0 2 0 0 Z " fill="#1C9156" transform="translate(63,37)"/>
<path d="M0 0 C0.87454834 0.00523682 1.74909668 0.01047363 2.65014648 0.01586914 C3.59438477 0.0190918 4.53862305 0.02231445 5.51147461 0.02563477 C6.50469727 0.03401367 7.49791992 0.04239258 8.52124023 0.05102539 C9.51833008 0.05553711 10.51541992 0.06004883 11.54272461 0.06469727 C14.01478872 0.07652532 16.48673541 0.0930069 18.95874023 0.11352539 C18.95874023 2.09352539 18.95874023 4.07352539 18.95874023 6.11352539 C13.67874023 6.11352539 8.39874023 6.11352539 2.95874023 6.11352539 C2.95874023 8.09352539 2.95874023 10.07352539 2.95874023 12.11352539 C6.91874023 12.11352539 10.87874023 12.11352539 14.95874023 12.11352539 C14.95874023 13.76352539 14.95874023 15.41352539 14.95874023 17.11352539 C10.99874023 17.11352539 7.03874023 17.11352539 2.95874023 17.11352539 C2.95874023 21.40352539 2.95874023 25.69352539 2.95874023 30.11352539 C0.97874023 30.11352539 -1.00125977 30.11352539 -3.04125977 30.11352539 C-3.06591722 26.00179979 -3.08409935 21.89010261 -3.09619141 17.77832031 C-3.10123056 16.37857311 -3.10806193 14.97883119 -3.11669922 13.57910156 C-3.12878296 11.57106762 -3.13395783 9.56299582 -3.13891602 7.55493164 C-3.14415283 6.34522705 -3.14938965 5.13552246 -3.15478516 3.88916016 C-3.00254571 0.16698765 -3.00254571 0.16698765 0 0 Z " fill="#72B694" transform="translate(245.041259765625,35.886474609375)"/>
<path d="M0 0 C1.65 0 3.3 0 5 0 C6.98 3.63 8.96 7.26 11 11 C14.03814404 7.31929947 14.03814404 7.31929947 15.25 3.8125 C17 1 17 1 20.6875 0.125 C21.780625 0.08375 22.87375 0.0425 24 0 C23.42067756 4.36905672 21.76636075 7.31464523 19.5 11.0625 C15.94506828 17.43084393 14.90870225 22.7613923 15 30 C12.69 30 10.38 30 8 30 C8.020625 29.37996094 8.04125 28.75992188 8.0625 28.12109375 C7.88697234 20.58437468 5.52444103 15.44925218 1.70703125 9.12866211 C-1.0492447 4.46633242 -1.0492447 4.46633242 -0.7421875 1.55859375 C-0.49726563 1.04425781 -0.25234375 0.52992187 0 0 Z " fill="#27975F" transform="translate(266,36)"/>
<path d="M0 0 C1.65322266 0.01740234 1.65322266 0.01740234 3.33984375 0.03515625 C4.99693359 0.04869141 4.99693359 0.04869141 6.6875 0.0625 C7.54214844 0.07410156 8.39679688 0.08570313 9.27734375 0.09765625 C9.60734375 1.74765625 9.93734375 3.39765625 10.27734375 5.09765625 C8.95734375 5.42765625 7.63734375 5.75765625 6.27734375 6.09765625 C6.27734375 12.36765625 6.27734375 18.63765625 6.27734375 25.09765625 C7.59734375 25.42765625 8.91734375 25.75765625 10.27734375 26.09765625 C10.27734375 27.41765625 10.27734375 28.73765625 10.27734375 30.09765625 C5.32734375 30.09765625 0.37734375 30.09765625 -4.72265625 30.09765625 C-4.39265625 28.44765625 -4.06265625 26.79765625 -3.72265625 25.09765625 C-2.73265625 25.09765625 -1.74265625 25.09765625 -0.72265625 25.09765625 C-0.72265625 18.82765625 -0.72265625 12.55765625 -0.72265625 6.09765625 C-2.04265625 5.76765625 -3.36265625 5.43765625 -4.72265625 5.09765625 C-3.60073576 0.12915121 -3.60073576 0.12915121 0 0 Z " fill="#8CC2A7" transform="translate(227.72265625,35.90234375)"/>
<path d="M0 0 C2.72998676 0.11437651 5.4584582 0.24111406 8.1875 0.375 C9.34088867 0.42140625 9.34088867 0.42140625 10.51757812 0.46875 C18.07494388 0.85797055 22.32759775 2.7069085 27.6171875 8.1796875 C29 10 29 10 29.4375 12.9375 C29.293125 13.618125 29.14875 14.29875 29 15 C28.72027344 14.41347656 28.44054688 13.82695313 28.15234375 13.22265625 C26.02716363 9.12358002 24.04903883 6.3811109 20 4 C13.81325687 2.27931207 7.36964299 1.66814437 1 1 C0.89365234 1.61190186 0.78730469 2.22380371 0.67773438 2.85424805 C-0.43389743 6.37374803 -3.55531065 7.84962747 -6.5 9.8125 C-7.77449278 10.6898753 -9.04792875 11.56878769 -10.3203125 12.44921875 C-10.94583008 12.87895996 -11.57134766 13.30870117 -12.21582031 13.75146484 C-15.92642709 16.3480772 -19.46287758 19.17404505 -23 22 C-22.41406643 25.09803959 -21.5235659 26.89648975 -19.4375 29.25 C-18.633125 30.1575 -17.82875 31.065 -17 32 C-18.32 32.99 -19.64 33.98 -21 35 C-20.43697042 38.94120709 -19.3208055 41.7508723 -17 45 C-16.34 45 -15.68 45 -15 45 C-15.495 44.071875 -15.99 43.14375 -16.5 42.1875 C-18 39 -18 39 -18 36 C-17.34 36 -16.68 36 -16 36 C-15.32942113 37.7902061 -14.6636531 39.58221489 -14 41.375 C-13.443125 42.87160156 -13.443125 42.87160156 -12.875 44.3984375 C-12 47 -12 47 -12 49 C-12.99 49 -13.98 49 -15 49 C-14.69964844 49.54269531 -14.39929687 50.08539063 -14.08984375 50.64453125 C-13.70957031 51.35996094 -13.32929688 52.07539062 -12.9375 52.8125 C-12.55464844 53.52019531 -12.17179687 54.22789063 -11.77734375 54.95703125 C-11 57 -11 57 -12 60 C-14.97 59.67 -17.94 59.34 -21 59 C-21 58.34 -21 57.68 -21 57 C-17.535 56.505 -17.535 56.505 -14 56 C-14.97453125 54.37191406 -14.97453125 54.37191406 -15.96875 52.7109375 C-16.81318077 51.26602263 -17.65689313 49.82068776 -18.5 48.375 C-18.92925781 47.66214844 -19.35851562 46.94929688 -19.80078125 46.21484375 C-22.24236781 41.99051144 -23.65772242 39.02260755 -23 34 C-22 31.625 -22 31.625 -21 30 C-22.2684375 28.9171875 -22.2684375 28.9171875 -23.5625 27.8125 C-26 25 -26 25 -25.89355469 22.52368164 C-24.81581367 19.47979942 -23.778447 18.62217047 -21.140625 16.80859375 C-20.35429687 16.25623047 -19.56796875 15.70386719 -18.7578125 15.13476562 C-17.93023437 14.57466797 -17.10265625 14.01457031 -16.25 13.4375 C-14.62953022 12.31217377 -13.00972087 11.18589584 -11.390625 10.05859375 C-10.62685547 9.53378418 -9.86308594 9.00897461 -9.07617188 8.46826172 C-7.34900329 7.24681395 -5.68789313 5.93261148 -4.046875 4.59765625 C-2 3 -2 3 0 3 C0 2.01 0 1.02 0 0 Z " fill="#DCE6E1" transform="translate(35,19)"/>
<path d="M0 0 C0.66 0.33 1.32 0.66 2 1 C0.08778596 6.73664211 -2.64717032 9.99954664 -7.0625 14.10546875 C-9.07293623 15.92994941 -9.07293623 15.92994941 -10.4375 18.23828125 C-12 20 -12 20 -14.6875 20.25 C-15.450625 20.1675 -16.21375 20.085 -17 20 C-16.83242188 20.69867188 -16.66484375 21.39734375 -16.4921875 22.1171875 C-16.18667969 23.48230469 -16.18667969 23.48230469 -15.875 24.875 C-15.66617187 25.77992187 -15.45734375 26.68484375 -15.2421875 27.6171875 C-15.16226562 28.40351562 -15.08234375 29.18984375 -15 30 C-15.66 30.66 -16.32 31.32 -17 32 C-17.66 29.03 -18.32 26.06 -19 23 C-19.66 23 -20.32 23 -21 23 C-20.01 25.97 -19.02 28.94 -18 32 C-19.485 32.495 -19.485 32.495 -21 33 C-25.01796407 26.79041916 -25.01796407 26.79041916 -24.9375 23.25 C-23.94493238 20.86783771 -22.85226585 19.74685235 -21 18 C-21.66708984 17.41992188 -21.66708984 17.41992188 -22.34765625 16.828125 C-22.91355469 16.30734375 -23.47945312 15.7865625 -24.0625 15.25 C-24.63097656 14.73953125 -25.19945312 14.2290625 -25.78515625 13.703125 C-27 12 -27 12 -26.8125 9.875 C-26 8 -26 8 -23.9375 6.75 C-23.298125 6.5025 -22.65875 6.255 -22 6 C-22.2165625 7.299375 -22.2165625 7.299375 -22.4375 8.625 C-21.85602971 13.11062798 -19.98633937 14.22485644 -16.53125 16.8984375 C-16.0259375 17.26195313 -15.520625 17.62546875 -15 18 C-14.599021 17.11683105 -14.599021 17.11683105 -14.18994141 16.21582031 C-12.98357913 13.96942228 -11.7065935 12.39521664 -9.9609375 10.546875 C-9.38085938 9.928125 -8.80078125 9.309375 -8.203125 8.671875 C-7.59984375 8.03765625 -6.9965625 7.4034375 -6.375 6.75 C-5.76398437 6.1003125 -5.15296875 5.450625 -4.5234375 4.78125 C-3.01971926 3.18354937 -1.51184263 1.59000851 0 0 Z " fill="#25945D" transform="translate(38,32)"/>
<path d="M0 0 C2.475 0.495 2.475 0.495 5 1 C4.01 1.495 4.01 1.495 3 2 C3.474375 2.78375 3.94875 3.5675 4.4375 4.375 C5.33898023 5.88948678 6.21179485 7.4235897 7 9 C6.34 9 5.68 9 5 9 C5 9.99 5 10.98 5 12 C5.99 12 6.98 12 8 12 C10.1875 14.5 10.1875 14.5 12 17 C11.67 17.66 11.34 18.32 11 19 C9.35 17.68 7.7 16.36 6 15 C4.68 15.99 3.36 16.98 2 18 C2.33 16.35 2.66 14.7 3 13 C-3.26755599 17.89175102 -8.28915495 23.60976003 -13 30 C-16.38608737 28.5488197 -18.81173659 26.99873134 -21 24 C-21.1328125 20.78515625 -21.1328125 20.78515625 -20 17 C-17.47953058 14.29536967 -14.58064419 12.24334003 -11.5625 10.125 C-10.77294922 9.54492188 -9.98339844 8.96484375 -9.16992188 8.3671875 C-3.58902481 4.29451241 -3.58902481 4.29451241 -1 3 C-0.67 2.01 -0.34 1.02 0 0 Z M-8.5 12.8125 C-9.38042969 13.45509766 -10.26085938 14.09769531 -11.16796875 14.75976562 C-12.43060547 15.69272461 -12.43060547 15.69272461 -13.71875 16.64453125 C-14.49154297 17.21534424 -15.26433594 17.78615723 -16.06054688 18.37426758 C-18.22656562 20.03508955 -18.22656562 20.03508955 -20 23 C-18.02 24.65 -16.04 26.3 -14 28 C-9.30762016 23.41731215 -4.80319423 18.75053386 -0.54296875 13.76171875 C0.91080366 12.10184189 2.42141586 10.54066019 4 9 C3.67 8.01 3.34 7.02 3 6 C-1.25046432 6 -5.19960759 10.36015864 -8.5 12.8125 Z " fill="#57A57D" transform="translate(36,20)"/>
<path d="M0 0 C3.07969154 3.07969154 3.27303257 5.16134683 3.4375 9.4375 C1.4575 9.4375 -0.5225 9.4375 -2.5625 9.4375 C-2.8925 8.1175 -3.2225 6.7975 -3.5625 5.4375 C-4.2225 5.4375 -4.8825 5.4375 -5.5625 5.4375 C-5.5625 4.7775 -5.5625 4.1175 -5.5625 3.4375 C-6.84125 3.458125 -8.12 3.47875 -9.4375 3.5 C-13.3125 3.5625 -13.3125 3.5625 -15.5625 2.4375 C-15.2325 4.7475 -14.9025 7.0575 -14.5625 9.4375 C-11.9225 10.4275 -9.2825 11.4175 -6.5625 12.4375 C-6.5625 13.4275 -6.5625 14.4175 -6.5625 15.4375 C-8.69051223 15.01489475 -10.81488452 14.57392627 -12.9375 14.125 C-14.12085937 13.88136719 -15.30421875 13.63773438 -16.5234375 13.38671875 C-19.5625 12.4375 -19.5625 12.4375 -21.5625 9.4375 C-21.4084426 5.81715105 -20.98494138 3.95851103 -18.6875 1.125 C-13.36985731 -3.0978339 -5.93737262 -2.6041108 0 0 Z " fill="#2F9663" transform="translate(106.5625,37.5625)"/>
<path d="M0 0 C3.3 0 6.6 0 10 0 C10 0.33 10 0.66 10 1 C7.03 1 4.06 1 1 1 C1 3.64 1 6.28 1 9 C6.445 8.505 6.445 8.505 12 8 C11.67 5.69 11.34 3.38 11 1 C11.99 1.33 12.98 1.66 14 2 C14 4.31 14 6.62 14 9 C14.66 9 15.32 9 16 9 C16.33 6.03 16.66 3.06 17 0 C17.33 0 17.66 0 18 0 C18.05447047 1.41623216 18.09300508 2.83308191 18.125 4.25 C18.14820313 5.03890625 18.17140625 5.8278125 18.1953125 6.640625 C18 9 18 9 16.96875 11.03125 C15.79514586 13.41631647 15.94305182 14.6583109 16.375 17.25 C16.58125 18.4875 16.7875 19.725 17 21 C17.99 21 18.98 21 20 21 C19.67 22.65 19.34 24.3 19 26 C12.125 25.125 12.125 25.125 11 24 C10.76712992 22.31816052 10.58735834 20.6287584 10.4375 18.9375 C10.35371094 18.01839844 10.26992187 17.09929688 10.18359375 16.15234375 C10.12300781 15.44207031 10.06242188 14.73179688 10 14 C9.01 13.67 8.02 13.34 7 13 C8.98 12.34 10.96 11.68 13 11 C8.71 10.67 4.42 10.34 0 10 C0 6.7 0 3.4 0 0 Z " fill="#B1D1C1" transform="translate(148,41)"/>
<path d="M0 0 C11 0 11 0 15 2 C11.37 2 7.74 2 4 2 C4 6.29 4 10.58 4 15 C6.64 15 9.28 15 12 15 C12 15.66 12 16.32 12 17 C9.69 17.33 7.38 17.66 5 18 C5 21.3 5 24.6 5 28 C3.35 28 1.7 28 0 28 C0 18.76 0 9.52 0 0 Z " fill="#2D9A64" transform="translate(200,38)"/>
<path d="M0 0 C2.64 0 5.28 0 8 0 C8 0.66 8 1.32 8 2 C8.66 2 9.32 2 10 2 C10 5.3 10 8.6 10 12 C7 11 7 11 6.05078125 9.15234375 C5.80714844 8.42144531 5.56351563 7.69054688 5.3125 6.9375 C5.06113281 6.20402344 4.80976563 5.47054687 4.55078125 4.71484375 C4.36902344 4.14894531 4.18726563 3.58304688 4 3 C3.87882813 3.60328125 3.75765625 4.2065625 3.6328125 4.828125 C3.38144531 6.02695312 3.38144531 6.02695312 3.125 7.25 C2.96257812 8.03890625 2.80015625 8.8278125 2.6328125 9.640625 C2 12 2 12 0 16 C2.97 16 5.94 16 9 16 C5.53446727 18.31035515 3.07353391 18.41806658 -1 19 C-1.99 19.66 -2.98 20.32 -4 21 C-6.21455254 14.35634238 -2.25702942 6.36482296 0 0 Z " fill="#319A65" transform="translate(179,38)"/>
<path d="M0 0 C2.05078125 0.03255208 4.1015625 0.06510417 6.15234375 0.09765625 C6.48234375 1.41765625 6.81234375 2.73765625 7.15234375 4.09765625 C6.82234375 3.43765625 6.49234375 2.77765625 6.15234375 2.09765625 C3.51234375 2.09765625 0.87234375 2.09765625 -1.84765625 2.09765625 C-3.37117311 8.73583686 -4.66909893 15.38990982 -5.84765625 22.09765625 C-5.18765625 21.76765625 -4.52765625 21.43765625 -3.84765625 21.09765625 C-1.8071062 21.02700008 0.23568632 21.01343649 2.27734375 21.03515625 C3.37304688 21.04417969 4.46875 21.05320312 5.59765625 21.0625 C6.44070312 21.07410156 7.28375 21.08570312 8.15234375 21.09765625 C9.63734375 25.55265625 9.63734375 25.55265625 11.15234375 30.09765625 C10.49234375 30.09765625 9.83234375 30.09765625 9.15234375 30.09765625 C8.49234375 27.45765625 7.83234375 24.81765625 7.15234375 22.09765625 C3.85234375 22.09765625 0.55234375 22.09765625 -2.84765625 22.09765625 C-3.50765625 24.73765625 -4.16765625 27.37765625 -4.84765625 30.09765625 C-7.15765625 30.09765625 -9.46765625 30.09765625 -11.84765625 30.09765625 C-10.48808894 23.37497165 -8.59352133 17.05155946 -6.28515625 10.59765625 C-5.81045898 9.24027344 -5.81045898 9.24027344 -5.32617188 7.85546875 C-2.59698595 0.13726141 -2.59698595 0.13726141 0 0 Z " fill="#C0DACD" transform="translate(180.84765625,35.90234375)"/>
<path d="M0 0 C3.5578125 -0.0928125 3.5578125 -0.0928125 7.1875 -0.1875 C8.29387817 -0.22846802 8.29387817 -0.22846802 9.42260742 -0.27026367 C13.8359672 -0.32569142 16.45877259 0.38017933 20 3 C19.67 5.97 19.34 8.94 19 12 C18.34 12 17.68 12 17 12 C16.67 9.69 16.34 7.38 16 5 C11.71 4.34 7.42 3.68 3 3 C3 6.3 3 9.6 3 13 C7.62 13 12.24 13 17 13 C14 16 14 16 10.86328125 16.07421875 C7.57552083 15.71614583 4.28776042 15.35807292 1 15 C0.67 10.05 0.34 5.1 0 0 Z " fill="#199256" transform="translate(145,38)"/>
<path d="M0 0 C-0.57932244 4.36905672 -2.23363925 7.31464523 -4.5 11.0625 C-8.05493172 17.43084393 -9.09129775 22.7613923 -9 30 C-9.33 30 -9.66 30 -10 30 C-10 25.05 -10 20.1 -10 15 C-9.34 15 -8.68 15 -8 15 C-8 14.01 -8 13.02 -8 12 C-8.99 12 -9.98 12 -11 12 C-11.33 12.99 -11.66 13.98 -12 15 C-12.66 15 -13.32 15 -14 15 C-13.39020764 11.58516279 -12.08579421 9.72757705 -10 7 C-9.2265625 5.4221875 -9.2265625 5.4221875 -8.4375 3.8125 C-6.2628669 -0.44221693 -4.48309549 -0.1179762 0 0 Z " fill="#A8D1BC" transform="translate(290,36)"/>
<path d="M0 0 C3.875 1.75 3.875 1.75 5 4 C7.32156597 4.40729228 9.6568787 4.74438677 12 5 C12.66 6.65 13.32 8.3 14 10 C12.68 10 11.36 10 10 10 C10.495 15.94 10.495 15.94 11 22 C8.60496313 23.12672175 6.2090129 24.25142558 3.8125 25.375 C3.13896484 25.69210938 2.46542969 26.00921875 1.77148438 26.3359375 C0.44657169 26.95638441 -0.88113301 27.57090693 -2.21166992 28.17919922 C-3.65025874 28.83947712 -5.07718777 29.52512904 -6.5 30.21875 C-9.93840296 31.29325092 -13.25205017 31.21358535 -16.8125 31.125 C-17.85180664 31.11146484 -17.85180664 31.11146484 -18.91210938 31.09765625 C-20.60822395 31.07426157 -22.30415871 31.03839641 -24 31 C-22.78515625 29.44921875 -22.78515625 29.44921875 -21 28 C-18.93359375 28.20703125 -18.93359375 28.20703125 -16.4375 28.8125 C-8.09378267 29.93396738 -0.94046215 25.41868426 6.29516602 21.75024414 C8 21 8 21 10 21 C9.505 19.6696875 9.505 19.6696875 9 18.3125 C8.08777857 15.29076653 7.81669042 13.11626294 8 10 C9.32 9.67 10.64 9.34 12 9 C11.505 8.01 11.505 8.01 11 7 C9.906875 6.9175 8.81375 6.835 7.6875 6.75 C4 6 4 6 1.5625 2.9375 C0.7890625 1.4834375 0.7890625 1.4834375 0 0 Z " fill="#D5E1DB" transform="translate(52,45)"/>
<path d="M0 0 C-0.99 0.495 -0.99 0.495 -2 1 C-1.89558594 1.95519531 -1.79117188 2.91039062 -1.68359375 3.89453125 C-1.19238161 11.71494047 -1.23700475 16.12849473 -6.5 22.4375 C-7.9657017 23.99141523 -9.45469918 25.52521886 -11 27 C-11.33 26.34 -11.66 25.68 -12 25 C-12.66 24.67 -13.32 24.34 -14 24 C-13.4225 23.38253906 -12.845 22.76507813 -12.25 22.12890625 C-7.03986188 16.41386362 -7.03986188 16.41386362 -5.4375 9.125 C-5.67961416 6.33296009 -6.27820461 3.70521635 -7 1 C-4.53721199 -0.231394 -2.7204945 -0.07159196 0 0 Z " fill="#429F72" transform="translate(41,47)"/>
<path d="M0 0 C5.10710027 -0.17610691 9.31152151 -0.29214504 14 2 C15.90552945 3.8904461 17.39529527 5.8289289 19 8 C18.34 8 17.68 8 17 8 C17.33 8.99 17.66 9.98 18 11 C14.90134841 11.90142592 13.14066669 12.38741777 10 12 C5.96907654 9.46177788 1.78784645 6.37170357 0.24609375 1.73046875 C0.16488281 1.15941406 0.08367188 0.58835937 0 0 Z M4 4 C4.804375 4.804375 5.60875 5.60875 6.4375 6.4375 C7.625 7.625 8.8125 8.8125 10 10 C11.66617115 10.04063832 13.33388095 10.042721 15 10 C13.45198044 7.4158995 13.45198044 7.4158995 11 5 C7.35817665 4.10944264 7.35817665 4.10944264 4 4 Z " fill="#7DB99C" transform="translate(42,21)"/>
<path d="M0 0 C0.66 0 1.32 0 2 0 C2.33 0.99 2.66 1.98 3 3 C0.5433053 4.00419637 -1.91518353 5.00350501 -4.375 6 C-5.07367188 6.28617188 -5.77234375 6.57234375 -6.4921875 6.8671875 C-11.7734375 9 -11.7734375 9 -14 9 C-13.68289062 9.57492188 -13.36578125 10.14984375 -13.0390625 10.7421875 C-11.27586105 14.57350493 -11.03460561 17.89072257 -12 22 C-14.27118855 25.71132856 -16.86246443 28.9821696 -20 32 C-20.66 32 -21.32 32 -22 32 C-22.84080019 29.58570231 -23.67281402 27.16896007 -24.5 24.75 C-24.73847656 24.06808594 -24.97695313 23.38617188 -25.22265625 22.68359375 C-26.39421287 19.23586997 -27 16.68297096 -27 13 C-25.68 13.33 -24.36 13.66 -23 14 C-23.66 14.66 -24.32 15.32 -25 16 C-23.68 19.96 -22.36 23.92 -21 28 C-16.53961366 24.36126378 -15.26329863 21.51722349 -14.1640625 15.890625 C-14.10992187 15.26671875 -14.05578125 14.6428125 -14 14 C-14.33 13.67 -14.66 13.34 -15 13 C-15 11.35 -15 9.7 -15 8 C-10.05 5.69 -5.1 3.38 0 1 C0 0.67 0 0.34 0 0 Z " fill="#C8DCD2" transform="translate(48,39)"/>
<path d="M0 0 C6.50147136 -0.39008828 10.3384814 0.82876114 15.375 4.9375 C17 7 17 7 17 11 C15.02 11 13.04 11 11 11 C10.71125 10.360625 10.4225 9.72125 10.125 9.0625 C9.17176549 6.84793921 9.17176549 6.84793921 7 6 C7 5.34 7 4.68 7 4 C4.03 4 1.06 4 -2 4 C-1.34 2.68 -0.68 1.36 0 0 Z " fill="#299660" transform="translate(123,37)"/>
<path d="M0 0 C1.65 1.65 3.3 3.3 5 5 C4.34 5 3.68 5 3 5 C3 5.99 3 6.98 3 8 C3.99 8 4.98 8 6 8 C8.1875 10.5 8.1875 10.5 10 13 C9.67 13.66 9.34 14.32 9 15 C7.35 13.68 5.7 12.36 4 11 C2.68 11.99 1.36 12.98 0 14 C0.33 12.35 0.66 10.7 1 9 C-5.26755599 13.89175102 -10.28915495 19.60976003 -15 26 C-18.36591866 24.55746343 -20.51047079 22.66735273 -23 20 C-22.67 19.34 -22.34 18.68 -22 18 C-20.02 19.65 -18.04 21.3 -16 23 C-11.64771006 18.76676966 -7.52677576 14.40978477 -3.578125 9.796875 C-2 8 -2 8 -0.296875 6.390625 C1.22734181 5.07314141 1.22734181 5.07314141 1 3 C0.34 2.34 -0.32 1.68 -1 1 C-0.67 0.67 -0.34 0.34 0 0 Z " fill="#D9E5DF" transform="translate(38,24)"/>
<path d="M0 0 C3.3 0.33 6.6 0.66 10 1 C10 1.33 10 1.66 10 2 C7.69 2.33 5.38 2.66 3 3 C2.67 3.99 2.34 4.98 2 6 C3.46373047 6.48919922 3.46373047 6.48919922 4.95703125 6.98828125 C6.24234511 7.42922834 7.52749278 7.87066008 8.8125 8.3125 C9.45509766 8.52583984 10.09769531 8.73917969 10.75976562 8.95898438 C17.10867275 11.16300913 17.10867275 11.16300913 19 14 C19.39078556 16.72507798 19.13616953 19.23121956 19 22 C18.67 22 18.34 22 18 22 C17.87625 20.88625 17.7525 19.7725 17.625 18.625 C17.3534187 14.96896323 17.3534187 14.96896323 15 13 C12.42938689 12.35232207 12.42938689 12.35232207 10 12 C10 12.66 10 13.32 10 14 C10.66 14 11.32 14 12 14 C12 14.66 12 15.32 12 16 C10.05954312 15.5758071 8.12268239 15.13514005 6.1875 14.6875 C5.10855469 14.44386719 4.02960938 14.20023438 2.91796875 13.94921875 C0.0552844 13.01798408 -1.15397066 12.31239465 -3 10 C-1.3743193 10.30893932 0.25052748 10.6222695 1.875 10.9375 C2.77992187 11.11152344 3.68484375 11.28554688 4.6171875 11.46484375 C7 12 7 12 9 13 C9 12.01 9 11.02 9 10 C8.071875 9.87625 7.14375 9.7525 6.1875 9.625 C3 9 3 9 0 7 C-0.1875 3.375 -0.1875 3.375 0 0 Z " fill="#ADCCBD" transform="translate(91,40)"/>
<path d="M0 0 C0.66 0 1.32 0 2 0 C2.19335938 0.63808594 2.38671875 1.27617188 2.5859375 1.93359375 C2.84632812 2.75988281 3.10671875 3.58617188 3.375 4.4375 C3.63023438 5.26121094 3.88546875 6.08492188 4.1484375 6.93359375 C4.80882227 9.17798016 4.80882227 9.17798016 7 10 C7 10.99 7 11.98 7 13 C11.455 13.99 11.455 13.99 16 15 C16 15.66 16 16.32 16 17 C14.35 17 12.7 17 11 17 C11 16.34 11 15.68 11 15 C6.545 15.495 6.545 15.495 2 16 C-2 8.25 -2 8.25 -2 6 C-1.01 6 -0.02 6 1 6 C0.67 4.02 0.34 2.04 0 0 Z " fill="#1A9354" transform="translate(22,62)"/>
<path d="M0 0 C0.66 0.33 1.32 0.66 2 1 C-0.20221582 7.60664745 -3.96630509 11.31412278 -9 16 C-10.33796292 17.32868761 -11.67261896 18.66074083 -13 20 C-13.66 18.68 -14.32 17.36 -15 16 C-14.25556641 15.27296875 -14.25556641 15.27296875 -13.49609375 14.53125 C-8.76945304 9.867392 -4.3033455 5.05643097 0 0 Z " fill="#4AA074" transform="translate(38,32)"/>
<path d="M0 0 C3.96 0 7.92 0 12 0 C12 0.99 12 1.98 12 3 C10.35 3 8.7 3 7 3 C7 9.27 7 15.54 7 22 C6.34 22 5.68 22 5 22 C4.67 15.73 4.34 9.46 4 3 C2.68 3 1.36 3 0 3 C0 2.01 0 1.02 0 0 Z " fill="#189253" transform="translate(225,38)"/>
<path d="M0 0 C2.64 0 5.28 0 8 0 C8 0.66 8 1.32 8 2 C8.66 2 9.32 2 10 2 C10 5.3 10 8.6 10 12 C7 11 7 11 6.05078125 9.15234375 C5.80714844 8.42144531 5.56351563 7.69054688 5.3125 6.9375 C4.93544922 5.83728516 4.93544922 5.83728516 4.55078125 4.71484375 C4.36902344 4.14894531 4.18726563 3.58304688 4 3 C3.67 4.98 3.34 6.96 3 9 C2.67 7.68 2.34 6.36 2 5 C1.01 5 0.02 5 -1 5 C-0.67 3.35 -0.34 1.7 0 0 Z " fill="#45A174" transform="translate(179,38)"/>
<path d="M0 0 C3.07969154 3.07969154 3.27303257 5.16134683 3.4375 9.4375 C1.4575 9.4375 -0.5225 9.4375 -2.5625 9.4375 C-2.68625 8.798125 -2.81 8.15875 -2.9375 7.5 C-3.14375 6.819375 -3.35 6.13875 -3.5625 5.4375 C-4.2225 5.1075 -4.8825 4.7775 -5.5625 4.4375 C-4.2425 4.4375 -2.9225 4.4375 -1.5625 4.4375 C-1.5625 5.7575 -1.5625 7.0775 -1.5625 8.4375 C-0.5725 8.4375 0.4175 8.4375 1.4375 8.4375 C0.46011169 4.00330015 0.46011169 4.00330015 -2.75 1.0625 C-7.43970024 0.02034439 -11.0683002 -0.3095999 -15.4375 1.875 C-17.44154745 3.26628145 -17.44154745 3.26628145 -18.5625 4.4375 C-18.63398199 5.78993917 -18.64649454 7.14584367 -18.625 8.5 C-18.604375 9.799375 -18.58375 11.09875 -18.5625 12.4375 C-20.125 11.3125 -20.125 11.3125 -21.5625 9.4375 C-21.48493437 5.79191547 -20.99427589 3.9700236 -18.6875 1.125 C-13.36985731 -3.0978339 -5.93737262 -2.6041108 0 0 Z " fill="#CCDCD4" transform="translate(106.5625,37.5625)"/>
<path d="M0 0 C3.63 0.99 7.26 1.98 11 3 C11 3.66 11 4.32 11 5 C-14.87985437 9.82402913 -14.87985437 9.82402913 -24 8 C-24 7.67 -24 7.34 -24 7 C-10.635 6.01 -10.635 6.01 3 5 C3 4.34 3 3.68 3 3 C0.525 2.505 0.525 2.505 -2 2 C-1.34 1.34 -0.68 0.68 0 0 Z " fill="#A5C6B6" transform="translate(56,73)"/>
<path d="M0 0 C2.70313576 -0.21917317 4.43958382 -0.32851983 6.8125 1.0625 C8.60842137 3.99268751 8.18977574 6.6472953 8 10 C6.35 10.33 4.7 10.66 3 11 C3 11.66 3 12.32 3 13 C0.69 13 -1.62 13 -4 13 C-1.702779 11.25728062 0.59866729 9.60088848 3 8 C2.67 6.02 2.34 4.04 2 2 C1.34 2 0.68 2 0 2 C0 1.34 0 0.68 0 0 Z " fill="#25945D" transform="translate(101,52)"/>
<path d="M0 0 C3.875 1.875 3.875 1.875 5 3 C5.04063832 4.66617115 5.042721 6.33388095 5 8 C5.99 8 6.98 8 8 8 C7.67 9.65 7.34 11.3 7 13 C5.35 13 3.7 13 2 13 C0.21590198 9.93753253 -0.22880021 7.77920727 -0.125 4.25 C-0.10695312 3.45078125 -0.08890625 2.6515625 -0.0703125 1.828125 C-0.04710937 1.22484375 -0.02390625 0.6215625 0 0 Z " fill="#26945F" transform="translate(160,54)"/>
<path d="M0 0 C1.65 0 3.3 0 5 0 C5 0.99 5 1.98 5 3 C3.68 2.67 2.36 2.34 1 2 C1.6496875 3.09957031 2.299375 4.19914062 2.96875 5.33203125 C11.65656729 20.53097958 11.65656729 20.53097958 10 30 C9.34 30 8.68 30 8 30 C8.020625 29.37996094 8.04125 28.75992188 8.0625 28.12109375 C7.88697234 20.58437468 5.52444103 15.44925218 1.70703125 9.12866211 C-1.0492447 4.46633242 -1.0492447 4.46633242 -0.7421875 1.55859375 C-0.49726563 1.04425781 -0.25234375 0.52992187 0 0 Z " fill="#DCE9E3" transform="translate(266,36)"/>
<path d="M0 0 C2.8125 0.125 2.8125 0.125 6 1 C8.797324 5.00949774 9.34474932 8.1735095 9 13 C8.01 13.33 7.02 13.66 6 14 C4.99515796 12.04414675 3.99626195 10.08523763 3 8.125 C2.1646875 6.48917969 2.1646875 6.48917969 1.3125 4.8203125 C0 2 0 2 0 0 Z " fill="#47A375" transform="translate(267,38)"/>
<path d="M0 0 C0.33 0.99 0.66 1.98 1 3 C1.99 2.67 2.98 2.34 4 2 C3 5 3 5 0.71484375 6.16796875 C-0.20167969 6.50441406 -1.11820313 6.84085937 -2.0625 7.1875 C-3.44115234 7.70376953 -3.44115234 7.70376953 -4.84765625 8.23046875 C-5.55792969 8.48441406 -6.26820312 8.73835938 -7 9 C-6.67 9.66 -6.34 10.32 -6 11 C-7.65 11 -9.3 11 -11 11 C-11 10.34 -11 9.68 -11 9 C-11.66 8.34 -12.32 7.68 -13 7 C-12.14535156 6.66226563 -11.29070313 6.32453125 -10.41015625 5.9765625 C-9.30542969 5.53054687 -8.20070313 5.08453125 -7.0625 4.625 C-5.96035156 4.18414062 -4.85820313 3.74328125 -3.72265625 3.2890625 C-0.88769814 2.28958568 -0.88769814 2.28958568 0 0 Z " fill="#389969" transform="translate(63,65)"/>
<path d="M0 0 C0.5775 0.7425 1.155 1.485 1.75 2.25 C3.88507707 5.00552884 3.88507707 5.00552884 6.3125 7.0625 C7.1478125 8.0215625 7.1478125 8.0215625 8 9 C7.75 11.25 7.75 11.25 7 13 C5.68 13 4.36 13 3 13 C3 12.34 3 11.68 3 11 C2.01 11 1.02 11 0 11 C0.226875 10.401875 0.45375 9.80375 0.6875 9.1875 C0.790625 8.465625 0.89375 7.74375 1 7 C-0.41666667 5.41666667 -0.41666667 5.41666667 -2 4 C-2 3.01 -2 2.02 -2 1 C-1.34 0.67 -0.68 0.34 0 0 Z " fill="#1B9457" transform="translate(41,21)"/>
<path d="M0 0 C0 5.28 0 10.56 0 16 C-1.32 15.34 -2.64 14.68 -4 14 C-4 9.71 -4 5.42 -4 1 C-2 0 -2 0 0 0 Z " fill="#2E9861" transform="translate(117,44)"/>
<path d="M0 0 C8.78285366 3.73427745 8.78285366 3.73427745 11 9 C11 9.66 11 10.32 11 11 C10.34 11 9.68 11 9 11 C9 10.34 9 9.68 9 9 C8.34 9 7.68 9 7 9 C7.66 11.31 8.32 13.62 9 16 C8.01 15.67 7.02 15.34 6 15 C5.30741771 13.00882592 4.64252365 11.0078864 4 9 C2.50113129 7.16310524 2.50113129 7.16310524 1 6 C1.99 6 2.98 6 4 6 C3.34 5.38125 2.68 4.7625 2 4.125 C0 2 0 2 0 0 Z " fill="#99C6B1" transform="translate(63,37)"/>
<path d="M0 0 C1.1434356 2.20519723 2.13225922 4.35544665 3 6.6875 C3.77234179 9.15427599 3.77234179 9.15427599 6 10 C6 7.69 6 5.38 6 3 C8.45823172 6.68734758 9.01242616 9.69699971 10 14 C9.54625 13.505 9.0925 13.01 8.625 12.5 C7.12364481 10.77390663 7.12364481 10.77390663 5 11 C5 11.99 5 12.98 5 14 C2.03 14 -0.94 14 -4 14 C-3.67 13.01 -3.34 12.02 -3 11 C-3 11.66 -3 12.32 -3 13 C-1.02 13 0.96 13 3 13 C2.69964844 12.39671875 2.39929688 11.7934375 2.08984375 11.171875 C1.70957031 10.37265625 1.32929688 9.5734375 0.9375 8.75 C0.55464844 7.96109375 0.17179688 7.1721875 -0.22265625 6.359375 C-1.08564091 3.74006478 -0.93045933 2.55144824 0 0 Z " fill="#B8D6C7" transform="translate(183,40)"/>
<path d="M0 0 C0.99 0.33 1.98 0.66 3 1 C0.69 4.63 -1.62 8.26 -4 12 C-4.33 10.68 -4.66 9.36 -5 8 C-5.66 8 -6.32 8 -7 8 C-7 6.35 -7 4.7 -7 3 C-3.535 2.505 -3.535 2.505 0 2 C0 1.34 0 0.68 0 0 Z " fill="#81BC9E" transform="translate(72,55)"/>
<path d="M0 0 C-0.99 0.495 -0.99 0.495 -2 1 C-2 5.29 -2 9.58 -2 14 C-2.99 14.33 -3.98 14.66 -5 15 C-5.06058594 14.32453125 -5.12117188 13.6490625 -5.18359375 12.953125 C-5.26738281 12.06109375 -5.35117187 11.1690625 -5.4375 10.25 C-5.51871094 9.36828125 -5.59992187 8.4865625 -5.68359375 7.578125 C-5.96238465 5.30649548 -6.38790577 3.20148177 -7 1 C-4.53721199 -0.231394 -2.7204945 -0.07159196 0 0 Z " fill="#2D925F" transform="translate(41,47)"/>
<path d="M0 0 C3.96 0 7.92 0 12 0 C12 0.99 12 1.98 12 3 C8.37 3 4.74 3 1 3 C1 7.29 1 11.58 1 16 C0.67 16 0.34 16 0 16 C0 10.72 0 5.44 0 0 Z " fill="#4C9D77" transform="translate(247,50)"/>
<path d="M0 0 C4.875 1.875 4.875 1.875 6 3 C5.91062197 4.52519276 5.75462854 6.04681929 5.5625 7.5625 C5.46066406 8.38878906 5.35882813 9.21507812 5.25390625 10.06640625 C5.17011719 10.70449219 5.08632812 11.34257813 5 12 C4.34 12 3.68 12 3 12 C2.67 9.69 2.34 7.38 2 5 C-3.94 4.01 -3.94 4.01 -10 3 C-10 2.67 -10 2.34 -10 2 C-6.7 2 -3.4 2 0 2 C0 1.34 0 0.68 0 0 Z " fill="#2C9865" transform="translate(159,38)"/>
<path d="M0 0 C0.66 0 1.32 0 2 0 C2 0.66 2 1.32 2 2 C2.99 2 3.98 2 5 2 C5.33 4.31 5.66 6.62 6 9 C4.68 9 3.36 9 2 9 C2 9.66 2 10.32 2 11 C0.68 11 -0.64 11 -2 11 C-1.67 9.68 -1.34 8.36 -1 7 C-0.01 7 0.98 7 2 7 C1.67 6.401875 1.34 5.80375 1 5.1875 C0 3 0 3 0 0 Z " fill="#1D945A" transform="translate(70,46)"/>
<path d="M0 0 C0.33 0.66 0.66 1.32 1 2 C-4.18831313 5.27682935 -9.01019307 5.79382983 -15 5 C-15.99 4.34 -16.98 3.68 -18 3 C-17.01 3 -16.02 3 -15 3 C-15 2.34 -15 1.68 -15 1 C-7.57142857 0.71428571 -7.57142857 0.71428571 -4 3 C-4 2.34 -4 1.68 -4 1 C-2.68 0.67 -1.36 0.34 0 0 Z " fill="#6AAE8C" transform="translate(108,62)"/>
<path d="M0 0 C0.80824219 0.19464844 1.61648437 0.38929687 2.44921875 0.58984375 C3.06410156 0.74582031 3.67898437 0.90179688 4.3125 1.0625 C4.3125 1.3925 4.3125 1.7225 4.3125 2.0625 C2.3325 2.0625 0.3525 2.0625 -1.6875 2.0625 C0.03476496 5.31099977 0.03476496 5.31099977 3.3125 6.0625 C2.9825 7.0525 2.6525 8.0425 2.3125 9.0625 C0.9925 9.0625 -0.3275 9.0625 -1.6875 9.0625 C-2.0175 7.7425 -2.3475 6.4225 -2.6875 5.0625 C-3.3475 5.0625 -4.0075 5.0625 -4.6875 5.0625 C-6.3125 2.5625 -6.3125 2.5625 -7.6875 0.0625 C-4.39053895 -1.03648702 -3.28255097 -0.80874444 0 0 Z " fill="#4AA377" transform="translate(52.6875,33.9375)"/>
<path d="M0 0 C0.33 0 0.66 0 1 0 C1 0.928125 1 1.85625 1 2.8125 C1.62420721 6.06092614 1.62420721 6.06092614 3.84765625 7.06640625 C5.88326804 7.80956611 7.90300196 8.45544926 10 9 C10 9.99 10 10.98 10 12 C6.7 11.34 3.4 10.68 0 10 C-1.125 6.6875 -1.125 6.6875 -2 3 C-1.34 2.01 -0.68 1.02 0 0 Z " fill="#26955E" transform="translate(90,41)"/>
<path d="M0 0 C0.33 0.99 0.66 1.98 1 3 C1.99 3.33 2.98 3.66 4 4 C1.28817788 6.60334924 0.10866187 6.99456691 -3.75 7.1875 C-4.8225 7.125625 -5.895 7.06375 -7 7 C-6.01 6.67 -5.02 6.34 -4 6 C-4 5.34 -4 4.68 -4 4 C-6.64 4 -9.28 4 -12 4 C-12 3.67 -12 3.34 -12 3 C-11.21753906 2.95101562 -10.43507812 2.90203125 -9.62890625 2.8515625 C-8.61699219 2.77679688 -7.60507813 2.70203125 -6.5625 2.625 C-5.55316406 2.55539063 -4.54382813 2.48578125 -3.50390625 2.4140625 C-2.26447266 2.20910156 -2.26447266 2.20910156 -1 2 C-0.67 1.34 -0.34 0.68 0 0 Z " fill="#64AB87" transform="translate(216,49)"/>
<path d="M0 0 C3.25 -0.3125 3.25 -0.3125 7 0 C9.4375 2.5 9.4375 2.5 11 5 C10.67 5.66 10.34 6.32 10 7 C9.67 6.67 9.34 6.34 9 6 C8.34 6.66 7.68 7.32 7 8 C6.67 7.34 6.34 6.68 6 6 C5.0409375 5.566875 5.0409375 5.566875 4.0625 5.125 C1.57998766 3.77090236 1.03128603 2.57821507 0 0 Z " fill="#7DB89B" transform="translate(58,45)"/>
<path d="M0 0 C1.32 0.33 2.64 0.66 4 1 C3.01 1 2.02 1 1 1 C1 7.27 1 13.54 1 20 C2.32 20.33 3.64 20.66 5 21 C5 22.32 5 23.64 5 25 C4.34 25 3.68 25 3 25 C3 24.01 3 23.02 3 22 C2.01 22 1.02 22 0 22 C0 14.74 0 7.48 0 0 Z " fill="#CCDFD5" transform="translate(233,41)"/>
<path d="M0 0 C0.33 0.66 0.66 1.32 1 2 C1.66 2 2.32 2 3 2 C3.99 4.97 4.98 7.94 6 11 C5.01 11.33 4.02 11.66 3 12 C-1.06153846 5.72307692 -1.06153846 5.72307692 -0.75 2.0625 C-0.5025 1.381875 -0.255 0.70125 0 0 Z " fill="#37996A" transform="translate(14,53)"/>
<path d="M0 0 C0.99 0.33 1.98 0.66 3 1 C3.33 2.98 3.66 4.96 4 7 C2.02 7 0.04 7 -2 7 C-2.28875 6.38125 -2.5775 5.7625 -2.875 5.125 C-3.93720042 2.86674235 -3.93720042 2.86674235 -6 1 C-4.68 1 -3.36 1 -2 1 C-2 1.66 -2 2.32 -2 3 C-0.68 3.33 0.64 3.66 2 4 C2 3.34 2 2.68 2 2 C1.34 2 0.68 2 0 2 C0 1.34 0 0.68 0 0 Z " fill="#81B89D" transform="translate(136,41)"/>
<path d="M0 0 C0.66 0 1.32 0 2 0 C2.67057887 1.7902061 3.3363469 3.58221489 4 5.375 C4.556875 6.87160156 4.556875 6.87160156 5.125 8.3984375 C6 11 6 11 6 13 C4.68 13.33 3.36 13.66 2 14 C1.67 12.35 1.34 10.7 1 9 C1.66 9 2.32 9 3 9 C2.505 8.071875 2.01 7.14375 1.5 6.1875 C0 3 0 3 0 0 Z " fill="#8CC8A8" transform="translate(17,55)"/>
<path d="M0 0 C1.5625 1.8125 1.5625 1.8125 3 4 C2.67 4.99 2.34 5.98 2 7 C-0.97 6.67 -3.94 6.34 -7 6 C-7 5.34 -7 4.68 -7 4 C-3.535 3.505 -3.535 3.505 0 3 C0 2.01 0 1.02 0 0 Z " fill="#C9D8D0" transform="translate(21,72)"/>
<path d="M0 0 C1.65 0.33 3.3 0.66 5 1 C4.01 1.495 4.01 1.495 3 2 C2.27840576 3.64363134 1.60648579 5.31050386 1 7 C-0.65 7 -2.3 7 -4 7 C-3.67 6.01 -3.34 5.02 -3 4 C-2.34 3.67 -1.68 3.34 -1 3 C-0.67 2.01 -0.34 1.02 0 0 Z " fill="#3D9B6E" transform="translate(36,20)"/>
<path d="M0 0 C0.33 0.66 0.66 1.32 1 2 C1.99 2 2.98 2 4 2 C6.1875 4.5 6.1875 4.5 8 7 C7.67 7.66 7.34 8.32 7 9 C5.35 7.68 3.7 6.36 2 5 C0.68 5.99 -0.64 6.98 -2 8 C-1.125 1.125 -1.125 1.125 0 0 Z " fill="#92C3AB" transform="translate(40,30)"/>
<path d="M0 0 C0 0.66 0 1.32 0 2 C1.65 2 3.3 2 5 2 C5 2.33 5 2.66 5 3 C0.38 3 -4.24 3 -9 3 C-9.33 2.34 -9.66 1.68 -10 1 C-6.59437148 0.22157062 -3.49234244 -0.09978121 0 0 Z " fill="#53A77D" transform="translate(33,77)"/>
<path d="M0 0 C3.3 0 6.6 0 10 0 C7.77810176 2.22189824 5.91517292 2.92598892 3 4 C2.67 6.64 2.34 9.28 2 12 C1.67 12 1.34 12 1 12 C1.01160156 11.30132812 1.02320313 10.60265625 1.03515625 9.8828125 C1.04417969 8.97273438 1.05320313 8.06265625 1.0625 7.125 C1.07410156 6.22007813 1.08570313 5.31515625 1.09765625 4.3828125 C1.16249257 1.9831415 1.16249257 1.9831415 0 0 Z " fill="#84BBA1" transform="translate(38,46)"/>
<path d="M0 0 C-1.32 0.33 -2.64 0.66 -4 1 C-4 1.66 -4 2.32 -4 3 C-1.69 3 0.62 3 3 3 C3 3.33 3 3.66 3 4 C-0.3 4 -3.6 4 -7 4 C-7 3.01 -7 2.02 -7 1 C-8.32 0.67 -9.64 0.34 -11 0 C-9.54263913 -0.19491452 -8.08405407 -0.38069358 -6.625 -0.5625 C-5.81289063 -0.66691406 -5.00078125 -0.77132812 -4.1640625 -0.87890625 C-2 -1 -2 -1 0 0 Z " fill="#2C965F" transform="translate(45,76)"/>
<path d="M0 0 C0.33 0.99 0.66 1.98 1 3 C1.99 2.67 2.98 2.34 4 2 C3 5 3 5 1.15234375 5.94921875 C0.42144531 6.19285156 -0.30945312 6.43648438 -1.0625 6.6875 C-2.16271484 7.06455078 -2.16271484 7.06455078 -3.28515625 7.44921875 C-3.85105469 7.63097656 -4.41695312 7.81273438 -5 8 C-5 7.34 -5 6.68 -5 6 C-4.34 6 -3.68 6 -3 6 C-3.33 5.01 -3.66 4.02 -4 3 C-3.01 2.67 -2.02 2.34 -1 2 C-0.67 1.34 -0.34 0.68 0 0 Z " fill="#63A885" transform="translate(63,65)"/>
<path d="M0 0 C0.99 0.66 1.98 1.32 3 2 C2.67 3.98 2.34 5.96 2 8 C1.01 8 0.02 8 -1 8 C-1.33 8.66 -1.66 9.32 -2 10 C-2 8.68 -2 7.36 -2 6 C-2.66 5.67 -3.32 5.34 -4 5 C-2.68 5 -1.36 5 0 5 C0 3.35 0 1.7 0 0 Z " fill="#28975F" transform="translate(66,50)"/>
<path d="M0 0 C1.65 0 3.3 0 5 0 C4.67 1.65 4.34 3.3 4 5 C2.68 4.67 1.36 4.34 0 4 C-0.33 5.32 -0.66 6.64 -1 8 C-1.125 2.25 -1.125 2.25 0 0 Z " fill="#449F72" transform="translate(284,38)"/>
<path d="M0 0 C3.96 0 7.92 0 12 0 C12 0.99 12 1.98 12 3 C10.948125 2.814375 9.89625 2.62875 8.8125 2.4375 C5.42880118 2.04920669 3.23574112 2.11752515 0 3 C0 2.01 0 1.02 0 0 Z " fill="#2E9662" transform="translate(225,38)"/>
<path d="M0 0 C1.32 0.33 2.64 0.66 4 1 C4 3.31 4 5.62 4 8 C3.01 7.67 2.02 7.34 1 7 C0.67 4.69 0.34 2.38 0 0 Z " fill="#26965D" transform="translate(185,42)"/>
<path d="M0 0 C2.64 0 5.28 0 8 0 C7.34 0.66 6.68 1.32 6 2 C8.97 2.495 8.97 2.495 12 3 C12 3.33 12 3.66 12 4 C3.42857143 4.28571429 3.42857143 4.28571429 0 2 C0 1.34 0 0.68 0 0 Z " fill="#479D71" transform="translate(42,21)"/>
<path d="M0 0 C-0.25561323 2.3431213 -0.59270772 4.67843403 -1 7 C-1.99 7.495 -1.99 7.495 -3 8 C-3 6.68 -3 5.36 -3 4 C-3.66 4 -4.32 4 -5 4 C-4.67 3.01 -4.34 2.02 -4 1 C-2 0 -2 0 0 0 Z " fill="#50A57C" transform="translate(70,59)"/>
<path d="M0 0 C0.0825 0.61875 0.165 1.2375 0.25 1.875 C0.81258459 4.18437567 0.81258459 4.18437567 3.0625 5.25 C3.701875 5.4975 4.34125 5.745 5 6 C3.625 7.5 3.625 7.5 2 9 C1.34 9 0.68 9 0 9 C-0.99 7.02 -1.98 5.04 -3 3 C-2.34 3 -1.68 3 -1 3 C-0.67 2.01 -0.34 1.02 0 0 Z " fill="#47A173" transform="translate(117,56)"/>
<path d="M0 0 C0.66 0 1.32 0 2 0 C2 0.66 2 1.32 2 2 C2.99 2 3.98 2 5 2 C5.33 4.31 5.66 6.62 6 9 C5.34 8.01 4.68 7.02 4 6 C3.01 6.495 3.01 6.495 2 7 C0.5393715 4.35261084 0 3.10551666 0 0 Z " fill="#55A67F" transform="translate(70,46)"/>
<path d="M0 0 C1.4800841 0.11362262 2.95910074 0.24122908 4.4375 0.375 C5.26121094 0.44460937 6.08492187 0.51421875 6.93359375 0.5859375 C7.95646484 0.79089844 7.95646484 0.79089844 9 1 C9.33 1.66 9.66 2.32 10 3 C6.04 3 2.08 3 -2 3 C-1.34 2.01 -0.68 1.02 0 0 Z " fill="#C9DED3" transform="translate(30,73)"/>
<path d="M0 0 C-0.33 0.99 -0.66 1.98 -1 3 C-3.64 3 -6.28 3 -9 3 C-9 2.34 -9 1.68 -9 1 C-3.375 -1.125 -3.375 -1.125 0 0 Z " fill="#149450" transform="translate(50,76)"/>
<path d="M0 0 C0.33 0 0.66 0 1 0 C1 1.65 1 3.3 1 5 C1.99 5 2.98 5 4 5 C3.67 6.65 3.34 8.3 3 10 C1.35 10 -0.3 10 -2 10 C-0.68 9.67 0.64 9.34 2 9 C2 8.34 2 7.68 2 7 C1.34 7 0.68 7 0 7 C0 4.69 0 2.38 0 0 Z " fill="#BCD5C9" transform="translate(164,57)"/>
<path d="M0 0 C1.98 0.99 1.98 0.99 4 2 C4 3.65 4 5.3 4 7 C3.34 6.34 2.68 5.68 2 5 C1.34 6.32 0.68 7.64 0 9 C0 6.03 0 3.06 0 0 Z " fill="#3E9E6F" transform="translate(160,54)"/>
<path d="M0 0 C1.65 0 3.3 0 5 0 C4.50168276 3.68754757 3.89932357 5.60490662 1 8 C1 6.35 1 4.7 1 3 C1.66 3 2.32 3 3 3 C3 2.34 3 1.68 3 1 C2.01 1.33 1.02 1.66 0 2 C0 1.34 0 0.68 0 0 Z " fill="#6EAF8F" transform="translate(135,56)"/>
<path d="M0 0 C0.99 0 1.98 0 3 0 C2.67 1.32 2.34 2.64 2 4 C0.02 4.33 -1.96 4.66 -4 5 C-4.66 3.68 -5.32 2.36 -6 1 C-5.01 1.33 -4.02 1.66 -3 2 C-2.01 2 -1.02 2 0 2 C0 1.34 0 0.68 0 0 Z " fill="#C9DDD3" transform="translate(57,35)"/>
<path d="M0 0 C3.3 0.33 6.6 0.66 10 1 C9.67 1.66 9.34 2.32 9 3 C6.36 3 3.72 3 1 3 C0.67 2.01 0.34 1.02 0 0 Z " fill="#1D925A" transform="translate(118,62)"/>
<path d="M0 0 C4.455 0.99 4.455 0.99 9 2 C9 2.33 9 2.66 9 3 C7.906875 3.12375 6.81375 3.2475 5.6875 3.375 C1.92618198 3.75464801 1.92618198 3.75464801 -1 6 C-1 2 -1 2 0 0 Z " fill="#159452" transform="translate(176,53)"/>
<path d="M0 0 C0.598125 0.61875 1.19625 1.2375 1.8125 1.875 C4.00811144 4.13676954 4.00811144 4.13676954 7 6 C5.35 6.33 3.7 6.66 2 7 C0 4 0 4 0 0 Z " fill="#26915E" transform="translate(55,43)"/>
<path d="M0 0 C0.66 0.33 1.32 0.66 2 1 C2 2.98 2 4.96 2 7 C0.68 7 -0.64 7 -2 7 C-1.42415568 4.61435923 -0.77772405 2.33317216 0 0 Z " fill="#28945E" transform="translate(173,59)"/>
<path d="M0 0 C0.66 1.32 1.32 2.64 2 4 C0.35 5.65 -1.3 7.3 -3 9 C-2.25 2.25 -2.25 2.25 0 0 Z " fill="#65AD89" transform="translate(37,59)"/>
<path d="M0 0 C2.31 0 4.62 0 7 0 C7 0.66 7 1.32 7 2 C4.36 2.33 1.72 2.66 -1 3 C-0.67 2.01 -0.34 1.02 0 0 Z " fill="#2B9463" transform="translate(205,53)"/>
<path d="M0 0 C1.98 0 3.96 0 6 0 C6.33 0.99 6.66 1.98 7 3 C4.69 3.33 2.38 3.66 0 4 C0 2.68 0 1.36 0 0 Z " fill="#1A9455" transform="translate(18,49)"/>
<path d="M0 0 C1.65 0 3.3 0 5 0 C4.01 0.495 4.01 0.495 3 1 C3 2.98 3 4.96 3 7 C2.34 7 1.68 7 1 7 C0.67 4.69 0.34 2.38 0 0 Z " fill="#1D945B" transform="translate(36,47)"/>
<path d="M0 0 C3.3 0.33 6.6 0.66 10 1 C10 1.33 10 1.66 10 2 C8.906875 2.0825 7.81375 2.165 6.6875 2.25 C2.96723336 2.63689209 2.96723336 2.63689209 1.0625 5.0625 C0.711875 5.701875 0.36125 6.34125 0 7 C0 4.69 0 2.38 0 0 Z " fill="#8FC2A9" transform="translate(91,40)"/>
<path d="M0 0 C0 0.66 0 1.32 0 2 C2.64 2.33 5.28 2.66 8 3 C8 3.33 8 3.66 8 4 C6.72125 4.144375 5.4425 4.28875 4.125 4.4375 C1.74307106 4.70642746 0.15547309 4.92226346 -2 6 C-2 4.68 -2 3.36 -2 2 C-2.66 1.67 -3.32 1.34 -4 1 C-2 0 -2 0 0 0 Z " fill="#80BA9D" transform="translate(122,38)"/>
<path d="M0 0 C0.66 0 1.32 0 2 0 C1.74438677 2.3431213 1.40729228 4.67843403 1 7 C0.01 7.495 0.01 7.495 -1 8 C-1.04241723 5.66705225 -1.04092937 3.33297433 -1 1 C-0.67 0.67 -0.34 0.34 0 0 Z " fill="#1A9354" transform="translate(115,44)"/>
<path d="M0 0 C1.80125336 2.70188004 3.00243753 4.93057703 4 8 C3.67 8.99 3.34 9.98 3 11 C0.60236815 8.60236815 0.65719414 7.66726502 0.375 4.375 C0.30023438 3.55773438 0.22546875 2.74046875 0.1484375 1.8984375 C0.09945312 1.27195313 0.05046875 0.64546875 0 0 Z " fill="#A9CFBD" transform="translate(193,55)"/>
<path d="M0 0 C-0.33 0.66 -0.66 1.32 -1 2 C-3.64 2 -6.28 2 -9 2 C-5.945634 -1.054366 -3.9532319 -1.22686507 0 0 Z " fill="#2A9760" transform="translate(50,44)"/>
<path d="M0 0 C0.33 0 0.66 0 1 0 C1 2.97 1 5.94 1 9 C0.34 8.67 -0.32 8.34 -1 8 C-1.75 5.625 -1.75 5.625 -2 3 C-1.34 2.01 -0.68 1.02 0 0 Z " fill="#179257" transform="translate(90,41)"/>
<path d="M0 0 C0.33 0.66 0.66 1.32 1 2 C3.31 2 5.62 2 8 2 C8 2.66 8 3.32 8 4 C7.21625 3.95875 6.4325 3.9175 5.625 3.875 C2.83883881 3.71271266 2.83883881 3.71271266 1 6 C0 5 0 5 -0.0625 2.4375 C-0.041875 1.633125 -0.02125 0.82875 0 0 Z " fill="#8DBFA7" transform="translate(56,39)"/>
<path d="M0 0 C0.66 0.33 1.32 0.66 2 1 C1.360625 1.598125 0.72125 2.19625 0.0625 2.8125 C-2.20310389 4.90810337 -2.20310389 4.90810337 -3 8 C-3.99 8 -4.98 8 -6 8 C-4.55746343 4.63408134 -2.66735273 2.48952921 0 0 Z " fill="#3D996B" transform="translate(38,32)"/>
<path d="M0 0 C0.33 1.32 0.66 2.64 1 4 C0.01 4.66 -0.98 5.32 -2 6 C-2.66 4.68 -3.32 3.36 -4 2 C-2.68 1.34 -1.36 0.68 0 0 Z " fill="#58AA80" transform="translate(27,46)"/>
<path d="M0 0 C2.475 0.99 2.475 0.99 5 2 C4.67 2.99 4.34 3.98 4 5 C2.68 5 1.36 5 0 5 C0 3.35 0 1.7 0 0 Z " fill="#1B9151" transform="translate(51,38)"/>
<path d="M0 0 C0.66 0 1.32 0 2 0 C1.67 1.98 1.34 3.96 1 6 C0.34 5.34 -0.32 4.68 -1 4 C-1.66 4.66 -2.32 5.32 -3 6 C-2.42655063 3.13275314 -2.1385485 2.1385485 0 0 Z " fill="#3D9667" transform="translate(14,38)"/>
</svg>
